HIERARCHY
ROOT Hips
{
  OFFSET 17.7701 87.1834 112.63
  CHANNELS 6 Xposition Yposition Zposition Zrotation Xrotation Yrotation
  JOINT Spine
  {
    OFFSET -0.000355721 21.3001 -0.016921
    CHANNELS 3 Zrotation Xrotation Yrotation
    JOINT LeftArm
    {
      OFFSET 13.5181 21.3012 0
      CHANNELS 3 Zrotation Xrotation Yrotation
      JOINT LeftForeArm
      {
        OFFSET 24.5783 0 0
        CHANNELS 3 Zrotation Xrotation Yrotation
        JOINT LeftHand
        {
          OFFSET 24.5783 0 0
          CHANNELS 3 Zrotation Xrotation Yrotation
          End Site
          {
            OFFSET 7.32568 1.52588e-05 0.0169305
          }
        }
      }
    }
    JOINT Head
    {
      OFFSET 0 27.4458 -0.00489235
      CHANNELS 3 Zrotation Xrotation Yrotation
      End Site
      {
        OFFSET 0 0 0
      }
    }
    JOINT RightArm
    {
      OFFSET -13.5174 21.3012 0
      CHANNELS 3 Zrotation Xrotation Yrotation
      JOINT RightForeArm
      {
        OFFSET -24.5783 0 0
        CHANNELS 3 Zrotation Xrotation Yrotation
        JOINT RightHand
        {
          OFFSET -24.5783 0 0
          CHANNELS 3 Zrotation Xrotation Yrotation
          End Site
          {
            OFFSET -7.32568 1.52588e-05 0.0169305
          }
        }
      }
    }
  }
  JOINT RightUpLeg
  {
    OFFSET -8.44614 -9.41038 0.835684
    CHANNELS 3 Zrotation Xrotation Yrotation
    JOINT RightLeg
    {
      OFFSET 0 -40.9639 0
      CHANNELS 3 Zrotation Xrotation Yrotation
      JOINT RightFoot
      {
        OFFSET 0 -40.9639 0
        CHANNELS 3 Zrotation Xrotation Yrotation
        End Site
        {
          OFFSET 0.50614 -9.67405 14.6709
        }
      }
    }
  }
  JOINT LeftUpLeg
  {
    OFFSET 8.44614 -9.41038 0.835684
    CHANNELS 3 Zrotation Xrotation Yrotation
    JOINT LeftLeg
    {
      OFFSET 0 -40.9639 0
      CHANNELS 3 Zrotation Xrotation Yrotation
      JOINT LeftFoot
      {
        OFFSET 0 -40.9639 0
        CHANNELS 3 Zrotation Xrotation Yrotation
        End Site
        {
          OFFSET -0.50614 -9.67405 14.6709
        }
      }
    }
  }
}
MOTION
Frames:	26
Frame Time:	0.0333333
-0.0100314 100.165 -0.262422 0.0683364 5.32291 -1.0316 -5.08011 15.3828 16.3591 -71.5092 0.315397 50.9775 93.9527 14.8146 -89.838 -31.9815 -9.57451 -29.3233 6.18448 -11.2406 -34.0276 83.6167 8.75772 -1.79889 -103.822 56.4667 89.4351 28.3913 -3.02746 -5.45526 5.15437 -14.0391 -5.08515 -1.29397 27.9826 -47.3384 11.6939 -16.6964 1.37936 -5.47573 -25.6577 1.71048 2.28948 27.4536 -23.1085 6.52434 -5.21812 0.356276 
-0.156557 100.049 0.081734 0.157366 5.34249 -1.3224 -5.02083 15.2683 16.5401 -71.4923 -0.241488 51.7206 94.3178 14.6371 -90.1927 -31.5965 -11.5982 -25.5631 5.92902 -10.9861 -33.6855 83.4073 8.94475 -1.85006 -105.98 56.3981 91.0722 28.4048 -3.20407 -5.86474 5.35085 -14.096 -4.77712 -1.6749 28.4931 -47.2036 12.1341 -16.9173 1.24977 -5.43943 -25.9037 1.58672 2.35893 28.4237 -22.7529 6.60065 -6.00518 0.368591 
-0.339748 99.893 0.510208 0.157812 5.36127 -1.46421 -4.95929 15.0361 16.5904 -71.1176 -0.813659 52.175 94.4368 14.7739 -90.5357 -32.1552 -13.565 -21.6312 5.95729 -10.7149 -33.0667 83.058 9.09064 -1.54296 -107.861 55.9783 92.4611 28.6667 -3.21292 -5.56143 5.47134 -14.1292 -4.58918 -1.78111 29.1068 -47.0323 12.5593 -17.3283 0.948099 -5.40878 -26.232 1.25666 2.55445 29.6753 -22.4951 6.65265 -6.99248 0.342466 
-0.575734 99.6678 1.06552 0.189715 5.33667 -1.30278 -4.94645 14.68 16.5217 -70.082 -1.59909 52.738 94.2422 15.2372 -90.8208 -33.5548 -14.5342 -19.2808 6.32784 -10.3442 -32.2877 82.2745 8.96259 -1.4187 -107.09 55.0188 91.7271 27.9829 -2.73096 -4.10248 5.1693 -14.4764 -5.01027 -1.4591 30.6102 -46.6086 13.2022 -17.744 0.636636 -5.67601 -26.5568 0.415656 2.89373 31.2287 -21.875 6.65618 -8.26072 0.299858 
-0.790239 99.2237 1.70751 0.0514629 5.16273 -0.858714 -4.67582 14.3957 16.4527 -68.4656 -2.65284 53.3929 93.5134 15.9992 -90.839 -34.915 -14.3355 -18.8631 6.6748 -9.74201 -31.7155 80.7687 8.37815 -2.54924 -100.117 53.2617 86.348 24.0779 -1.5943 -1.54837 5.11298 -14.8946 -6.24099 -1.4194 32.7541 -46.0186 14.2086 -18.5608 0.0102263 -5.6623 -27.2213 -0.257899 2.9029 33.9264 -21.2548 7.1025 -10.0519 0.343598 
-0.88384 98.3994 2.39868 -0.394244 4.58287 -0.125782 -3.95444 14.2741 16.466 -66.6362 -3.76741 53.7172 91.1411 16.9379 -89.7501 -34.7972 -13.3773 -19.5982 6.79945 -8.63113 -31.5288 78.9078 7.36997 -5.87606 -87.7502 50.2649 77.5542 15.6667 -0.187065 1.6892 5.0906 -15.3748 -7.65963 -1.21716 36.2832 -45.7142 16.0287 -19.7966 -1.0662 -4.82214 -28.2903 0.238829 2.36077 38.2905 -21.7666 8.52856 -12.4058 0.610305 
-0.873817 97.3663 3.31099 -0.816393 3.44269 0.841418 -3.08075 14.0109 16.4365 -65.3858 -4.51572 53.3875 84.9345 17.2669 -86.0641 -31.1576 -12.1905 -20.6891 7.00355 -6.77099 -31.6575 77.6573 5.67891 -11.6358 -75.672 46.5259 69.8152 4.5958 0.779486 5.61374 2.91211 -17.0481 -7.87612 0.465954 44.1221 -45.5087 20.2995 -16.8682 -1.93504 -3.89223 -28.7707 1.47142 2.12103 43.0014 -23.0543 10.3744 -15.015 1.05773 
-0.808029 96.4383 4.54991 -1.2024 1.63485 1.97768 -2.07485 13.547 15.9682 -65.7826 -4.07233 51.7038 74.7324 15.6188 -80.0777 -22.8172 -11.2441 -21.8728 7.54354 -4.61084 -32.0998 77.2962 2.7282 -19.2778 -66.8166 43.1748 64.7362 -5.38813 0.88515 9.88992 -1.75101 -19.3714 -5.02396 4.3508 52.8656 -43.2088 24.84 -7.18102 -3.4573 -3.19107 -27.7749 2.67647 2.69297 46.8669 -24.1515 11.8762 -17.7887 1.53043 
-1.01085 95.1299 5.51214 -1.48037 -1.04859 3.32378 -1.42292 13.7451 14.4677 -67.7183 -1.3548 47.4034 64.7137 12.1312 -75.167 -12.7972 -10.6315 -23.3827 8.37234 -3.41913 -32.8035 76.9768 -1.42405 -27.4781 -59.5313 40.2005 60.8645 -11.815 0.354212 13.2277 -2.97121 -23.8909 -0.562299 7.18097 63.5271 -46.4088 16.7555 -12.5704 -3.21013 -1.2486 -26.371 5.55635 2.88293 51.6058 -27.1144 14.4093 -20.4774 2.34013 
-1.8581 94.0787 5.70826 -2.15775 -4.48353 5.19007 -0.869777 16.019 11.4449 -69.2113 4.05488 39.5978 58.3519 8.26907 -73.7256 -6.92225 -10.2274 -24.4705 9.33445 -4.39881 -33.5067 75.8769 -6.23742 -34.3359 -51.9678 37.4241 56.7896 -14.3123 -0.292525 15.2365 -1.81165 -28.3021 3.57628 0.991175 69.6916 -44.2327 17.6872 -17.5214 -3.74244 3.503 -24.1071 10.6442 1.41622 55.3721 -33.4661 18.3407 -20.7695 3.38953 
-3.0617 93.5128 4.84919 -2.80478 -8.42046 8.14549 0.136743 21.3029 6.94054 -67.9296 11.6477 27.0461 54.178 4.254 -74.7311 -5.87246 -10.0884 -23.4837 10.2356 -7.78859 -33.7602 73.7078 -11.6042 -38.1888 -43.9342 34.7778 52.1226 -13.5995 -0.794519 17.0531 -2.78185 -33.6151 6.73065 -4.31502 66.2697 -37.0329 24.496 -7.39008 -5.34985 7.55333 -21.5933 13.0783 -0.312922 57.4091 -38.6271 20.7648 -19.1936 3.77208 
-3.97886 93.2617 2.76373 -4.53191 -12.4278 11.6337 3.40582 28.4011 1.30163 -61.5186 19.8235 7.79422 48.9487 1.79022 -74.6518 -3.67572 -10.2075 -21.4823 11.1711 -12.3794 -32.7646 70.6856 -17.4004 -38.35 -36.8539 31.6748 48.1889 -12.1012 -1.20896 18.7603 -4.54797 -38.4466 7.47177 -3.21803 50.2601 -34.5915 16.894 9.6767 -5.43531 9.77371 -20.7658 10.4824 -0.434383 58.674 -39.807 20.366 -17.9463 3.43378 
-4.74307 92.9392 0.444085 -7.86302 -15.0537 13.1817 8.20239 34.3926 -4.69146 -48.5755 24.8017 -15.8784 42.2968 2.5031 -70.6782 2.60735 -10.3609 -21.2789 12.5366 -16.2399 -29.5747 67.9007 -22.8824 -34.296 -33.0723 28.6515 47.0423 -12.6594 -1.65473 19.0559 -5.64245 -41.7059 6.55275 -1.93483 27.9076 -37.4968 2.81102 21.8387 -1.22138 12.4033 -22.34 7.39974 1.1799 60.3286 -40.4929 18.8901 -17.5392 2.96434 
-5.19303 93.4956 -1.27884 -12.0063 -15.064 11.0878 12.2615 37.623 -9.29593 -33.1646 23.6262 -34.4291 38.1408 4.17772 -66.6098 9.35332 -10.5416 -19.7918 13.9497 -18.3796 -23.888 66.6615 -26.8998 -25.7223 -33.2596 27.2145 48.3812 -14.0026 -2.05166 18.1438 -5.79469 -49.6348 3.22224 -0.84596 15.5089 -39.9392 -1.42463 26.766 0.703522 16.452 -23.9686 8.09274 3.09904 59.4497 -42.1886 16.9402 -16.6441 2.27885 
-5.03051 95.6668 -1.49848 -15.0995 -13.2742 6.5664 14.7306 37.8907 -11.5433 -22.5582 20.1854 -40.3058 42.0728 6.61886 -69.0818 14.607 -10.4087 -12.6036 13.9457 -18.7055 -17.1052 66.4965 -28.299 -15.7361 -36.2707 27.3001 50.9606 -11.6629 -2.14214 17.6072 -8.07449 -66.3577 -4.92396 3.76303 27.0655 -33.7124 3.56557 21.0348 -0.800011 19.3085 -22.2155 10.8139 4.62711 53.9953 -42.3534 14.8299 -15.3742 1.49325 
-4.35752 99.3948 0.663548 -16.0422 -11.5847 2.76604 16.3809 36.2495 -12.1892 -19.633 20.4863 -37.0948 51.9026 9.25546 -75.2084 22.0084 -9.54459 -5.72833 12.0319 -18.1878 -11.9156 65.7611 -27.2525 -9.19567 -41.4023 27.2767 55.296 -4.54721 -1.85341 17.8008 -40.2486 -79.2827 -39.1994 17.0099 46.5779 -34.7552 8.16296 18.366 -1.96304 16.7303 -16.5946 11.4669 7.15283 44.841 -37.9075 18.1587 -12.7125 1.9625 
-4.12712 104.046 2.64946 -14.4388 -10.3439 1.5517 16.8192 35.6031 -11.9586 -23.4618 23.1918 -31.7835 54.4137 10.7157 -76.8278 32.4105 -9.40368 -7.59801 9.32726 -18.8476 -10.2531 64.2028 -25.2017 -7.16639 -48.29 25.6598 61.6606 3.10308 -1.54425 17.4174 -114.173 -79.1485 -113.494 38.523 69.0392 -51.9666 9.45701 22.3774 -2.15656 13.3477 -10.6683 11.8464 5.31578 28.7255 -31.3143 6.16036 8.37894 -3.27973 
-4.61278 107.974 2.73391 -11.0825 -9.43626 2.16035 15.7137 36.6984 -10.4952 -32.0761 23.8624 -26.7947 46.2134 9.63346 -73.5149 37.8472 -10.51 -15.1938 6.44553 -20.598 -11.9639 61.9019 -22.8923 -8.67225 -54.4458 22.118 67.9096 7.06444 -1.67368 15.1191 -139.413 -72.9536 -140.316 140.905 79.9465 -151.868 9.59721 26.9303 -2.2507 12.5828 -11.9564 14.0718 2.90464 25.8092 -29.9747 -16.0334 19.02 -2.45409 
-5.29997 110.052 3.49763 -7.13506 -9.00811 3.46197 13.4158 37.2695 -7.51258 -43.6487 21.6944 -21.3845 40.2732 8.41535 -71.5079 34.6892 -10.8477 -17.5812 3.44372 -21.2384 -15.2888 58.9132 -20.2363 -13.2277 -56.4302 17.4512 72.0673 7.91978 -2.22986 11.2289 -144.189 -72.0722 -141.61 176.902 62.4919 172.771 11.047 30.427 -2.88168 12.2121 -23.8628 14.3337 3.80014 49.584 -31.5776 -25.2412 12.2791 -2.75138 
-6.05353 111.746 4.83315 -3.51291 -8.80887 4.73184 10.462 37.1527 -3.91581 -54.9349 18.8079 -15.7366 42.1648 11.6713 -70.9448 31.1121 -9.48957 -11.3846 1.27958 -20.4253 -18.4144 56.6523 -17.1998 -19.7056 -54.214 12.6271 74.7753 8.27292 -2.82332 7.57363 -115.348 -77.5394 -107.317 -178.084 54.7901 167.272 12.5908 30.2681 -3.50299 11.8842 -38.1454 10.3498 -7.48283 79.533 -18.866 -23.7251 7.80002 -3.04772 
-7.10767 113.163 5.26347 -1.04638 -9.04508 5.628 6.79507 37.7294 -0.700559 -63.0059 17.9172 -9.04282 42.0937 16.1315 -67.9987 34.3899 -7.59515 -4.11209 1.34521 -19.1302 -20.0532 56.6776 -13.727 -26.9827 -51.6436 8.48571 77.4952 8.06154 -3.22976 5.99688 -55.3266 -72.5266 -42.5621 -176.541 61.4722 165.123 12.7515 26.8913 -3.42553 17.121 -53.0433 12.9883 -167.627 71.3735 141.031 -17.5073 10.4684 -2.13891 
-8.40223 112.602 5.47984 1.14082 -9.74305 6.32649 2.38237 38.5462 1.06015 -68.3648 18.2681 0.256683 34.3358 16.1192 -62.0169 44.393 -5.88232 -0.409007 3.21025 -17.7331 -19.4646 58.7574 -9.85089 -34.6896 -50.7712 5.21555 80.3933 6.08256 -3.58554 6.90106 -34.5775 -59.0666 -18.2263 -169.312 77.0561 155.882 12.7048 21.5124 -3.15745 33.5745 -64.0432 29.6195 -176.777 50.9616 148.358 -12.0504 19.1996 -1.10171 
-9.1956 111.144 6.67132 3.8038 -10.4514 6.8321 -1.28595 38.2206 0.782644 -72.4521 16.4877 11.3586 26.5538 12.7682 -58.4923 55.1403 -3.64023 2.51056 4.24431 -15.9853 -17.2385 61.9988 -5.60592 -42.6124 -48.268 2.27838 83.0831 2.84072 -4.07961 7.95939 -29.0882 -43.4379 -8.33119 -17.6504 80.2097 4.09683 14.9915 14.8673 -3.13592 46.0654 -65.3261 39.9955 -178.406 43.8783 149.31 -8.06734 25.9027 -0.736795 
-9.6796 109.824 8.49719 6.21525 -10.0989 6.67938 -3.74468 35.2016 -0.00920081 -74.1439 10.3822 22.0684 23.5135 11.0535 -58.7028 59.3382 -2.1357 5.05876 3.26879 -13.0271 -14.5665 67.0771 -0.675303 -49.876 -41.1028 0.159764 85.302 -2.44227 -4.42544 6.00787 -27.923 -29.0073 -1.74464 -4.35083 54.5325 -4.40968 16.3333 14.1434 -3.06896 48.1647 -61.7286 36.201 -177.431 47.993 152.761 -3.68065 24.6985 -1.02837 
-10.8086 107.494 11.0169 7.49322 -7.43858 5.03672 -5.38199 28.6906 0.139698 -71.6651 0.720771 31.1773 21.9335 10.5554 -59.1204 53.5775 -3.65677 2.8639 1.47024 -8.55918 -11.7791 74.3899 4.39505 -54.5784 -32.6959 0.322934 85.2732 -12.6476 -4.23142 1.90911 -26.3256 -21.4078 2.8462 -4.59595 35.9925 -1.14603 14.2769 19.1502 -2.92355 53.0999 -55.5358 34.3148 -176.225 59.2698 160.089 -8.70514 12.385 -0.195589 
-11.9287 103.567 13.7954 8.52588 -3.80864 2.21034 -5.27087 21.3323 0.410509 -66.3102 -8.92768 38.9719 18.8701 9.54209 -58.1441 39.3603 -6.54379 -3.22286 -1.33332 -4.48927 -8.95205 81.0915 7.50677 -54.9481 -27.9188 3.19787 80.2236 -25.3531 -4.30994 0.560523 -23.7026 -20.6885 3.14796 -9.4109 31.4991 0.295126 12.4442 18.0921 -2.57414 53.9587 -44.5393 32.0287 -159.056 77.2764 143.535 -21.4267 1.48871 -0.513362 
